<svg width="178" height="16" viewBox="0 0 178 16" fill="none" xmlns="http://www.w3.org/2000/svg">
<path d="M11 9.31961V0.999609H14.1V9.31961C14.1 13.2596 10.96 15.7996 7.06002 15.7996C3.14002 15.7996 2.44379e-05 13.2596 2.44379e-05 9.31961V0.999609H3.10002V9.31961C3.10002 11.9396 4.86002 13.5596 7.06002 13.5596C9.24002 13.5596 11 11.9396 11 9.31961ZM27.453 9.39961V15.5996H24.553V9.39961C24.553 7.51961 23.153 6.43961 21.393 6.43961C19.613 6.43961 18.193 7.51961 18.193 9.39961V15.5996H15.293V4.39961H18.193V5.79961C19.153 4.77961 20.533 4.19961 22.113 4.19961C25.053 4.19961 27.453 6.15961 27.453 9.39961ZM28.9124 15.5996V4.39961H31.8124V15.5996H28.9124ZM28.6524 1.69961C28.6524 0.959608 29.3924 0.359609 30.3724 0.359609C31.3324 0.359609 32.0724 0.959608 32.0724 1.69961C32.0724 2.43961 31.3324 3.03961 30.3724 3.03961C29.3924 3.03961 28.6524 2.43961 28.6524 1.69961ZM40.1413 -0.000391245C42.0413 -0.000391245 43.2613 0.579608 44.8013 2.01961L42.7813 3.43961C41.9813 2.59961 41.3213 2.23961 40.2213 2.23961C38.6213 2.23961 37.8613 3.05961 37.8613 4.39961H40.9613V6.61961H37.8613V15.5996H34.9613V6.61961H33.2813V4.39961H34.9613V4.37961C34.9613 1.53961 37.0213 -0.000391245 40.1413 -0.000391245ZM42.3213 15.5996V4.39961H45.2213V15.5996H42.3213ZM52.9458 15.7996C49.2858 15.7996 46.3258 13.2196 46.3258 9.99961C46.3258 6.77961 49.2258 4.19961 52.7458 4.19961C55.1258 4.19961 57.2258 5.39961 58.3058 7.15961C58.7458 7.79961 59.0058 8.51961 59.0858 9.31961L50.4058 12.4796C51.0258 13.1396 51.9258 13.5596 52.9458 13.5596C54.1658 13.5596 55.1858 12.9396 55.7458 12.0996L58.2458 13.2596C57.1458 14.7996 55.2258 15.7996 52.9458 15.7996ZM49.2658 10.4596L55.6858 8.11961C55.0858 7.09961 53.9858 6.43961 52.7458 6.43961C50.8058 6.43961 49.2258 7.99961 49.2258 9.99961C49.2258 10.1596 49.2458 10.2996 49.2658 10.4596ZM60.1149 9.99961C60.1149 6.67961 62.6349 4.19961 66.1149 4.19961C67.7149 4.19961 69.0749 4.87961 69.9949 6.01961V-0.000391245H72.8949V15.5996H69.9949V14.0396C69.0749 15.1596 67.6949 15.7996 66.0349 15.7996C62.6349 15.7996 60.1149 13.2996 60.1149 9.99961ZM63.0149 9.99961C63.0149 12.1196 64.3549 13.5596 66.3949 13.5596C68.5149 13.5596 69.9949 12.2596 69.9949 9.97961C69.9949 7.71961 68.3749 6.43961 66.4949 6.43961C64.3749 6.43961 63.0149 7.85961 63.0149 9.99961ZM87.2969 13.5596C88.9169 13.5596 90.1569 12.9796 91.0169 12.0596L93.2769 13.5396C91.8569 14.9196 89.7969 15.7996 87.2969 15.7996C82.3769 15.7996 79.1969 12.4596 79.1969 8.29961C79.1969 4.13961 82.3769 0.799609 87.2969 0.799609C89.7969 0.799609 91.8569 1.67961 93.2769 3.05961L91.0169 4.53961C90.1569 3.61961 88.9169 3.03961 87.2969 3.03961C84.0569 3.03961 82.2969 5.35961 82.2969 8.29961C82.2969 11.2396 84.0569 13.5596 87.2969 13.5596ZM93.5914 9.99961C93.5914 6.67961 96.1114 4.19961 99.5914 4.19961C101.191 4.19961 102.551 4.87961 103.471 6.01961V4.39961H106.371V15.5996H103.471V14.0396C102.551 15.1596 101.171 15.7996 99.5114 15.7996C96.1114 15.7996 93.5914 13.2996 93.5914 9.99961ZM96.4914 9.99961C96.4914 12.1196 97.8314 13.5596 99.8714 13.5596C101.991 13.5596 103.471 12.2596 103.471 9.97961C103.471 7.71961 101.851 6.43961 99.9714 6.43961C97.8514 6.43961 96.4914 7.85961 96.4914 9.99961ZM110.478 -0.000391245V15.5996H107.578V-0.000391245H110.478ZM118.2 15.7996C114.54 15.7996 111.58 13.2196 111.58 9.99961C111.58 6.77961 114.48 4.19961 118 4.19961C120.38 4.19961 122.48 5.39961 123.56 7.15961C124 7.79961 124.26 8.51961 124.34 9.31961L115.66 12.4796C116.28 13.1396 117.18 13.5596 118.2 13.5596C119.42 13.5596 120.44 12.9396 121 12.0996L123.5 13.2596C122.4 14.7996 120.48 15.7996 118.2 15.7996ZM114.52 10.4596L120.94 8.11961C120.34 7.09961 119.24 6.43961 118 6.43961C116.06 6.43961 114.48 7.99961 114.48 9.99961C114.48 10.1596 114.5 10.2996 114.52 10.4596ZM137.629 9.39961V15.5996H134.729V9.39961C134.729 7.51961 133.329 6.43961 131.569 6.43961C129.789 6.43961 128.369 7.51961 128.369 9.39961V15.5996H125.469V4.39961H128.369V5.79961C129.329 4.77961 130.709 4.19961 132.289 4.19961C135.229 4.19961 137.629 6.15961 137.629 9.39961ZM138.728 9.99961C138.728 6.67961 141.248 4.19961 144.728 4.19961C146.328 4.19961 147.688 4.87961 148.608 6.01961V-0.000391245H151.508V15.5996H148.608V14.0396C147.688 15.1596 146.308 15.7996 144.648 15.7996C141.248 15.7996 138.728 13.2996 138.728 9.99961ZM141.628 9.99961C141.628 12.1196 142.968 13.5596 145.008 13.5596C147.128 13.5596 148.608 12.2596 148.608 9.97961C148.608 7.71961 146.988 6.43961 145.108 6.43961C142.988 6.43961 141.628 7.85961 141.628 9.99961ZM152.615 9.99961C152.615 6.67961 155.135 4.19961 158.615 4.19961C160.215 4.19961 161.575 4.87961 162.495 6.01961V4.39961H165.395V15.5996H162.495V14.0396C161.575 15.1596 160.195 15.7996 158.535 15.7996C155.135 15.7996 152.615 13.2996 152.615 9.99961ZM155.515 9.99961C155.515 12.1196 156.855 13.5596 158.895 13.5596C161.015 13.5596 162.495 12.2596 162.495 9.97961C162.495 7.71961 160.875 6.43961 158.995 6.43961C156.875 6.43961 155.515 7.85961 155.515 9.99961ZM166.602 15.5996V4.39961H169.502V5.61961C170.322 4.69961 171.482 4.19961 172.802 4.19961C174.622 4.19961 175.842 4.83961 177.342 6.55961L175.322 7.97961C174.562 6.89961 173.762 6.43961 172.542 6.43961C170.862 6.43961 169.502 7.51961 169.502 9.39961V15.5996H166.602Z" fill="white"/>
</svg>
