<svg width="29" height="29" viewBox="0 0 29 29" fill="none" xmlns="http://www.w3.org/2000/svg">
<path d="M23.4 3.60078H20.7V2.70078C20.7 2.46209 20.6052 2.23317 20.4364 2.06439C20.2676 1.8956 20.0387 1.80078 19.8 1.80078C19.5613 1.80078 19.3324 1.8956 19.1636 2.06439C18.9948 2.23317 18.9 2.46209 18.9 2.70078V3.60078H9.89998V2.70078C9.89998 2.46209 9.80515 2.23317 9.63637 2.06439C9.46759 1.8956 9.23867 1.80078 8.99998 1.80078C8.76128 1.80078 8.53236 1.8956 8.36358 2.06439C8.1948 2.23317 8.09998 2.46209 8.09998 2.70078V3.60078H5.39998C4.92259 3.60078 4.46475 3.79042 4.12718 4.12799C3.78962 4.46555 3.59998 4.92339 3.59998 5.40078V23.4008C3.59998 23.8782 3.78962 24.336 4.12718 24.6736C4.46475 25.0111 4.92259 25.2008 5.39998 25.2008H23.4C23.8774 25.2008 24.3352 25.0111 24.6728 24.6736C25.0103 24.336 25.2 23.8782 25.2 23.4008V5.40078C25.2 4.92339 25.0103 4.46555 24.6728 4.12799C24.3352 3.79042 23.8774 3.60078 23.4 3.60078ZM8.09998 5.40078V6.30078C8.09998 6.53948 8.1948 6.76839 8.36358 6.93718C8.53236 7.10596 8.76128 7.20078 8.99998 7.20078C9.23867 7.20078 9.46759 7.10596 9.63637 6.93718C9.80515 6.76839 9.89998 6.53948 9.89998 6.30078V5.40078H18.9V6.30078C18.9 6.53948 18.9948 6.76839 19.1636 6.93718C19.3324 7.10596 19.5613 7.20078 19.8 7.20078C20.0387 7.20078 20.2676 7.10596 20.4364 6.93718C20.6052 6.76839 20.7 6.53948 20.7 6.30078V5.40078H23.4V9.00078H5.39998V5.40078H8.09998ZM23.4 23.4008H5.39998V10.8008H23.4V23.4008ZM15.75 14.8508C15.75 15.1178 15.6708 15.3788 15.5225 15.6008C15.3741 15.8228 15.1633 15.9958 14.9166 16.098C14.6699 16.2002 14.3985 16.2269 14.1366 16.1748C13.8747 16.1228 13.6342 15.9942 13.4454 15.8054C13.2566 15.6166 13.128 15.376 13.0759 15.1142C13.0238 14.8523 13.0506 14.5808 13.1527 14.3342C13.2549 14.0875 13.428 13.8766 13.65 13.7283C13.872 13.58 14.133 13.5008 14.4 13.5008C14.758 13.5008 15.1014 13.643 15.3546 13.8962C15.6077 14.1494 15.75 14.4927 15.75 14.8508ZM20.7 14.8508C20.7 15.1178 20.6208 15.3788 20.4725 15.6008C20.3241 15.8228 20.1133 15.9958 19.8666 16.098C19.6199 16.2002 19.3485 16.2269 19.0866 16.1748C18.8247 16.1228 18.5842 15.9942 18.3954 15.8054C18.2066 15.6166 18.078 15.376 18.0259 15.1142C17.9738 14.8523 18.0006 14.5808 18.1027 14.3342C18.2049 14.0875 18.378 13.8766 18.6 13.7283C18.822 13.58 19.083 13.5008 19.35 13.5008C19.708 13.5008 20.0514 13.643 20.3046 13.8962C20.5577 14.1494 20.7 14.4927 20.7 14.8508ZM10.8 19.3508C10.8 19.6178 10.7208 19.8788 10.5725 20.1008C10.4241 20.3228 10.2133 20.4958 9.9666 20.598C9.71992 20.7002 9.44848 20.7269 9.1866 20.6748C8.92473 20.6228 8.68418 20.4942 8.49538 20.3054C8.30658 20.1166 8.17801 19.876 8.12592 19.6142C8.07383 19.3523 8.10056 19.0808 8.20274 18.8342C8.30492 18.5875 8.47795 18.3766 8.69996 18.2283C8.92196 18.08 9.18297 18.0008 9.44998 18.0008C9.80802 18.0008 10.1514 18.143 10.4046 18.3962C10.6577 18.6494 10.8 18.9927 10.8 19.3508ZM15.75 19.3508C15.75 19.6178 15.6708 19.8788 15.5225 20.1008C15.3741 20.3228 15.1633 20.4958 14.9166 20.598C14.6699 20.7002 14.3985 20.7269 14.1366 20.6748C13.8747 20.6228 13.6342 20.4942 13.4454 20.3054C13.2566 20.1166 13.128 19.876 13.0759 19.6142C13.0238 19.3523 13.0506 19.0808 13.1527 18.8342C13.2549 18.5875 13.428 18.3766 13.65 18.2283C13.872 18.08 14.133 18.0008 14.4 18.0008C14.758 18.0008 15.1014 18.143 15.3546 18.3962C15.6077 18.6494 15.75 18.9927 15.75 19.3508ZM20.7 19.3508C20.7 19.6178 20.6208 19.8788 20.4725 20.1008C20.3241 20.3228 20.1133 20.4958 19.8666 20.598C19.6199 20.7002 19.3485 20.7269 19.0866 20.6748C18.8247 20.6228 18.5842 20.4942 18.3954 20.3054C18.2066 20.1166 18.078 19.876 18.0259 19.6142C17.9738 19.3523 18.0006 19.0808 18.1027 18.8342C18.2049 18.5875 18.378 18.3766 18.6 18.2283C18.822 18.08 19.083 18.0008 19.35 18.0008C19.708 18.0008 20.0514 18.143 20.3046 18.3962C20.5577 18.6494 20.7 18.9927 20.7 19.3508Z" fill="white"/>
</svg>
