<svg width="31" height="31" viewBox="0 0 31 31" fill="none" xmlns="http://www.w3.org/2000/svg">
<circle cx="15.2675" cy="15.2675" r="15.2675" fill="#2E363C"/>
<path d="M21.2313 8.11074H19.4422V7.51435C19.4422 7.35618 19.3793 7.20449 19.2675 7.09265C19.1556 6.9808 19.004 6.91797 18.8458 6.91797C18.6876 6.91797 18.5359 6.9808 18.4241 7.09265C18.3122 7.20449 18.2494 7.35618 18.2494 7.51435V8.11074H12.2855V7.51435C12.2855 7.35618 12.2227 7.20449 12.1109 7.09265C11.999 6.9808 11.8473 6.91797 11.6892 6.91797C11.531 6.91797 11.3793 6.9808 11.2674 7.09265C11.1556 7.20449 11.0928 7.35618 11.0928 7.51435V8.11074H9.30361C8.98727 8.11074 8.68388 8.23641 8.46019 8.46009C8.23651 8.68378 8.11084 8.98717 8.11084 9.30351V21.2312C8.11084 21.5476 8.23651 21.851 8.46019 22.0746C8.68388 22.2983 8.98727 22.424 9.30361 22.424H21.2313C21.5477 22.424 21.8511 22.2983 22.0747 22.0746C22.2984 21.851 22.4241 21.5476 22.4241 21.2312V9.30351C22.4241 8.98717 22.2984 8.68378 22.0747 8.46009C21.8511 8.23641 21.5477 8.11074 21.2313 8.11074ZM11.0928 9.30351V9.8999C11.0928 10.0581 11.1556 10.2098 11.2674 10.3216C11.3793 10.4334 11.531 10.4963 11.6892 10.4963C11.8473 10.4963 11.999 10.4334 12.1109 10.3216C12.2227 10.2098 12.2855 10.0581 12.2855 9.8999V9.30351H18.2494V9.8999C18.2494 10.0581 18.3122 10.2098 18.4241 10.3216C18.5359 10.4334 18.6876 10.4963 18.8458 10.4963C19.004 10.4963 19.1556 10.4334 19.2675 10.3216C19.3793 10.2098 19.4422 10.0581 19.4422 9.8999V9.30351H21.2313V11.6891H9.30361V9.30351H11.0928ZM21.2313 21.2312H9.30361V12.8818H21.2313V21.2312ZM18.3731 14.8454C18.4286 14.9008 18.4726 14.9666 18.5026 15.039C18.5326 15.1114 18.5481 15.189 18.5481 15.2674C18.5481 15.3457 18.5326 15.4233 18.5026 15.4957C18.4726 15.5681 18.4286 15.6339 18.3731 15.6893L14.7948 19.2676C14.7394 19.3231 14.6737 19.3671 14.6013 19.3971C14.5289 19.4271 14.4513 19.4425 14.3729 19.4425C14.2945 19.4425 14.2169 19.4271 14.1445 19.3971C14.0721 19.3671 14.0063 19.3231 13.9509 19.2676L12.1618 17.4785C12.0499 17.3666 11.987 17.2148 11.987 17.0565C11.987 16.8983 12.0499 16.7465 12.1618 16.6346C12.2737 16.5227 12.4255 16.4598 12.5837 16.4598C12.742 16.4598 12.8938 16.5227 13.0057 16.6346L14.3729 18.0025L17.5293 14.8454C17.5846 14.79 17.6504 14.746 17.7228 14.716C17.7952 14.686 17.8728 14.6705 17.9512 14.6705C18.0296 14.6705 18.1072 14.686 18.1796 14.716C18.252 14.746 18.3178 14.79 18.3731 14.8454Z" fill="white"/>
</svg>
