<svg width="42" height="42" viewBox="0 0 42 42" fill="none" xmlns="http://www.w3.org/2000/svg">
<g opacity="0.5">
<path d="M38.0625 15.75C38.0625 15.0538 37.7859 14.3861 37.2937 13.8938C36.8014 13.4016 36.1337 13.125 35.4375 13.125H30.1875V7.875C30.1875 7.17881 29.9109 6.51113 29.4187 6.01884C28.9264 5.52656 28.2587 5.25 27.5625 5.25H6.5625C5.86631 5.25 5.19863 5.52656 4.70634 6.01884C4.21406 6.51113 3.9375 7.17881 3.9375 7.875V28.875C3.93827 29.1219 4.00868 29.3636 4.14065 29.5723C4.27261 29.781 4.46077 29.9483 4.68351 30.0549C4.90626 30.1614 5.15455 30.203 5.39986 30.1748C5.64517 30.1466 5.87756 30.0498 6.07031 29.8955L11.8125 25.2656V30.1875C11.8125 30.8837 12.0891 31.5514 12.5813 32.0437C13.0736 32.5359 13.7413 32.8125 14.4375 32.8125H29.7921L35.9297 37.7705C36.1619 37.9583 36.4513 38.0613 36.75 38.0625C37.0981 38.0625 37.4319 37.9242 37.6781 37.6781C37.9242 37.4319 38.0625 37.0981 38.0625 36.75V15.75ZM31.0816 30.4795C30.8494 30.2917 30.56 30.1887 30.2613 30.1875H14.4375V24.9375H27.5625C28.2587 24.9375 28.9264 24.6609 29.4187 24.1687C29.9109 23.6764 30.1875 23.0087 30.1875 22.3125V15.75H35.4375V34.002L31.0816 30.4795Z" fill="white"/>
</g>
</svg>
