<svg width="22" height="22" viewBox="0 0 22 22" fill="none" xmlns="http://www.w3.org/2000/svg">
<path opacity="0.2" d="M19.4872 11.6447L13.7345 13.7364L11.6428 19.489C11.594 19.6206 11.506 19.7341 11.3908 19.8142C11.2756 19.8944 11.1386 19.9373 10.9983 19.9373C10.8579 19.9373 10.7209 19.8944 10.6057 19.8142C10.4905 19.7341 10.4026 19.6206 10.3537 19.489L8.26546 13.7364L2.5128 11.6447C2.38123 11.5958 2.26776 11.5079 2.18763 11.3927C2.1075 11.2775 2.06454 11.1405 2.06454 11.0001C2.06454 10.8598 2.1075 10.7228 2.18763 10.6076C2.26776 10.4924 2.38123 10.4044 2.5128 10.3556L8.26546 8.26732L10.3572 2.51467C10.406 2.38309 10.494 2.26962 10.6092 2.18949C10.7244 2.10936 10.8614 2.06641 11.0017 2.06641C11.1421 2.06641 11.279 2.10936 11.3943 2.18949C11.5095 2.26962 11.5974 2.38309 11.6462 2.51467L13.738 8.26732L19.4906 10.359C19.6209 10.4089 19.733 10.4972 19.8119 10.6122C19.8909 10.7272 19.933 10.8635 19.9326 11.003C19.9322 11.1426 19.8894 11.2786 19.8098 11.3932C19.7303 11.5079 19.6178 11.5955 19.4872 11.6447Z" fill="#FB8624"/>
<path d="M19.7227 9.70902L14.2708 7.7273L12.2891 2.27543C12.1914 2.01228 12.0155 1.78534 11.7851 1.62507C11.5547 1.46481 11.2807 1.37891 11 1.37891C10.7193 1.37891 10.4454 1.46481 10.2149 1.62507C9.98449 1.78534 9.80862 2.01228 9.71094 2.27543L7.72922 7.7273L2.27735 9.70902C2.01421 9.80669 1.78726 9.98256 1.62699 10.213C1.46673 10.4434 1.38083 10.7174 1.38083 10.9981C1.38083 11.2788 1.46673 11.5527 1.62699 11.7832C1.78726 12.0136 2.01421 12.1895 2.27735 12.2871L7.72922 14.2697L9.71094 19.7207C9.80862 19.9839 9.98449 20.2108 10.2149 20.3711C10.4454 20.5314 10.7193 20.6173 11 20.6173C11.2807 20.6173 11.5547 20.5314 11.7851 20.3711C12.0155 20.2108 12.1914 19.9839 12.2891 19.7207L14.2716 14.2689L19.7227 12.2871C19.9858 12.1895 20.2128 12.0136 20.373 11.7832C20.5333 11.5527 20.6192 11.2788 20.6192 10.9981C20.6192 10.7174 20.5333 10.4434 20.373 10.213C20.2128 9.98256 19.9858 9.80669 19.7227 9.70902ZM13.4991 13.0864C13.4048 13.1207 13.3191 13.1753 13.2482 13.2462C13.1772 13.3172 13.1226 13.4028 13.0883 13.4971L11 19.2395L8.91172 13.4971C8.87739 13.4028 8.82282 13.3172 8.75185 13.2462C8.68089 13.1753 8.59525 13.1207 8.50094 13.0864L2.7586 10.9981L8.50094 8.9098C8.59525 8.87546 8.68089 8.8209 8.75185 8.74993C8.82282 8.67897 8.87739 8.59332 8.91172 8.49902L11 2.75668L13.0883 8.49902C13.1226 8.59332 13.1772 8.67897 13.2482 8.74993C13.3191 8.8209 13.4048 8.87546 13.4991 8.9098L19.2414 10.9981L13.4991 13.0864Z" fill="url(#paint0_linear_79_2343)"/>
<defs>
<linearGradient id="paint0_linear_79_2343" x1="11" y1="1.37891" x2="11" y2="20.6173" gradientUnits="userSpaceOnUse">
<stop stop-color="#F9BB86"/>
<stop offset="1" stop-color="#FB8624"/>
</linearGradient>
</defs>
</svg>
