<svg width="216" height="52" viewBox="0 0 216 52" fill="none" xmlns="http://www.w3.org/2000/svg">
<path d="M0.439058 20.2793V1.2993H4.46906V9.0473H14.7391V1.2993H18.7691V20.2793H14.7391V11.9593H4.46906V20.2793H0.439058ZM28.7959 20.5393C24.0379 20.5393 20.1899 17.1853 20.1899 12.9993C20.1899 8.8133 23.9599 5.4593 28.5359 5.4593C31.6299 5.4593 34.3599 7.0193 35.7639 9.3073C36.3359 10.1393 36.6739 11.0753 36.7779 12.1153L25.4939 16.2233C26.2999 17.0813 27.4699 17.6273 28.7959 17.6273C30.3819 17.6273 31.7079 16.8213 32.4359 15.7293L35.6859 17.2373C34.2559 19.2393 31.7599 20.5393 28.7959 20.5393ZM24.0119 13.5973L32.3579 10.5553C31.5779 9.2293 30.1479 8.3713 28.5359 8.3713C26.0139 8.3713 23.9599 10.3993 23.9599 12.9993C23.9599 13.2073 23.9859 13.3893 24.0119 13.5973ZM42.0157 -0.000703931V20.2793H38.2457V-0.000703931H42.0157ZM47.3477 -0.000703931V20.2793H43.5777V-0.000703931H47.3477ZM48.7798 12.9993C48.7798 8.8133 52.6278 5.4593 57.3858 5.4593C62.1178 5.4593 65.9658 8.8133 65.9658 12.9993C65.9658 17.1853 62.1178 20.5393 57.3858 20.5393C52.6278 20.5393 48.7798 17.1853 48.7798 12.9993ZM52.5498 12.9993C52.5498 15.5993 54.7078 17.6273 57.3858 17.6273C60.0378 17.6273 62.1958 15.5993 62.1958 12.9993C62.1958 10.3993 60.0378 8.3713 57.3858 8.3713C54.7078 8.3713 52.5498 10.3993 52.5498 12.9993ZM67.3941 18.9793C67.3941 18.0953 68.2781 17.4193 69.3961 17.4193C70.5141 17.4193 71.3981 18.0953 71.3981 18.9793C71.3981 19.8373 70.5141 20.5393 69.3961 20.5393C68.2781 20.5393 67.3941 19.8373 67.3941 18.9793ZM68.2521 14.7673L67.5761 1.2993H71.2161L70.5401 14.7673H68.2521ZM3.18179 48.2793L-3.32892e-05 36.6429H1.43178L3.8636 46.1202H3.97724L6.45451 36.6429H8.04542L10.5227 46.1202H10.6363L13.0681 36.6429H14.5L11.3181 48.2793H9.8636L7.29542 39.0066H7.20451L4.63633 48.2793H3.18179ZM17.4147 43.0293V48.2793H16.0738V36.6429H17.4147V40.9157H17.5284C17.7329 40.4649 18.0397 40.1069 18.4488 39.8418C18.8617 39.5729 19.411 39.4384 20.0966 39.4384C20.6913 39.4384 21.2121 39.5577 21.6591 39.7963C22.106 40.0312 22.4526 40.3929 22.6988 40.8816C22.9488 41.3664 23.0738 41.9838 23.0738 42.7338V48.2793H21.7329V42.8248C21.7329 42.1316 21.553 41.5956 21.1931 41.2168C20.8371 40.8342 20.3428 40.6429 19.7102 40.6429C19.2708 40.6429 18.8769 40.7357 18.5284 40.9213C18.1837 41.1069 17.911 41.3778 17.7102 41.7338C17.5132 42.0899 17.4147 42.5217 17.4147 43.0293ZM28.0951 48.4838C27.5421 48.4838 27.0402 48.3797 26.5895 48.1713C26.1387 47.9592 25.7807 47.6543 25.5156 47.2566C25.2504 46.8551 25.1179 46.3702 25.1179 45.802C25.1179 45.302 25.2163 44.8967 25.4133 44.5861C25.6103 44.2717 25.8735 44.0255 26.2031 43.8475C26.5326 43.6694 26.8963 43.5369 27.294 43.4498C27.6955 43.3588 28.0989 43.2869 28.5042 43.2338C29.0345 43.1657 29.4645 43.1145 29.794 43.0804C30.1273 43.0426 30.3698 42.9801 30.5213 42.8929C30.6766 42.8058 30.7542 42.6543 30.7542 42.4384V42.3929C30.7542 41.8323 30.6008 41.3967 30.294 41.0861C29.991 40.7755 29.5307 40.6202 28.9133 40.6202C28.2732 40.6202 27.7713 40.7604 27.4076 41.0407C27.044 41.321 26.7883 41.6202 26.6406 41.9384L25.3679 41.4838C25.5951 40.9535 25.8982 40.5407 26.277 40.2452C26.6595 39.946 27.0762 39.7376 27.527 39.6202C27.9815 39.499 28.4285 39.4384 28.8679 39.4384C29.1482 39.4384 29.4701 39.4725 29.8338 39.5407C30.2012 39.6051 30.5554 39.7395 30.8963 39.9441C31.241 40.1486 31.527 40.4573 31.7542 40.8702C31.9815 41.2831 32.0951 41.8361 32.0951 42.5293V48.2793H30.7542V47.0975H30.686C30.5951 47.2869 30.4436 47.4895 30.2315 47.7054C30.0194 47.9213 29.7372 48.1051 29.3849 48.2566C29.0326 48.4081 28.6027 48.4838 28.0951 48.4838ZM28.2997 47.2793C28.83 47.2793 29.277 47.1751 29.6406 46.9668C30.008 46.7585 30.2845 46.4895 30.4701 46.16C30.6595 45.8304 30.7542 45.4838 30.7542 45.1202V43.8929C30.6974 43.9611 30.5724 44.0236 30.3792 44.0804C30.1898 44.1335 29.9701 44.1808 29.7201 44.2225C29.4739 44.2604 29.2334 44.2944 28.9985 44.3248C28.7675 44.3513 28.58 44.374 28.436 44.3929C28.0876 44.4384 27.7618 44.5123 27.4588 44.6145C27.1595 44.713 26.9171 44.8626 26.7315 45.0634C26.5497 45.2604 26.4588 45.5293 26.4588 45.8702C26.4588 46.3361 26.6311 46.6884 26.9758 46.927C27.3243 47.1619 27.7656 47.2793 28.2997 47.2793ZM38.338 39.552V40.6884H33.8153V39.552H38.338ZM35.1335 37.4611H36.4744V45.7793C36.4744 46.1581 36.5293 46.4422 36.6392 46.6316C36.7528 46.8172 36.8967 46.9422 37.071 47.0066C37.249 47.0672 37.4365 47.0975 37.6335 47.0975C37.7812 47.0975 37.9024 47.0899 37.9971 47.0748C38.0918 47.0558 38.1676 47.0407 38.2244 47.0293L38.4971 48.2338C38.4062 48.2679 38.2793 48.302 38.1164 48.3361C37.9536 48.374 37.7471 48.3929 37.4971 48.3929C37.1183 48.3929 36.7471 48.3115 36.3835 48.1486C36.0236 47.9857 35.7244 47.7376 35.4858 47.4043C35.2509 47.071 35.1335 46.6505 35.1335 46.1429V37.4611ZM48.4005 48.4611C47.5824 48.4611 46.8778 48.2679 46.2869 47.8816C45.696 47.4952 45.2414 46.963 44.9233 46.285C44.6051 45.6069 44.446 44.8323 44.446 43.9611C44.446 43.0748 44.6089 42.2926 44.9346 41.6145C45.2642 40.9327 45.7225 40.4005 46.3096 40.0179C46.9005 39.6316 47.5899 39.4384 48.3778 39.4384C48.9914 39.4384 49.5445 39.552 50.0369 39.7793C50.5293 40.0066 50.9327 40.3248 51.2471 40.7338C51.5615 41.1429 51.7566 41.6202 51.8324 42.1657H50.4914C50.3892 41.7679 50.1619 41.4157 49.8096 41.1088C49.4611 40.7982 48.9914 40.6429 48.4005 40.6429C47.8778 40.6429 47.4195 40.7793 47.0255 41.052C46.6354 41.321 46.3305 41.7016 46.1108 42.1941C45.8949 42.6827 45.7869 43.2566 45.7869 43.9157C45.7869 44.5899 45.893 45.177 46.1051 45.677C46.321 46.177 46.624 46.5653 47.0142 46.8418C47.4081 47.1183 47.8702 47.2566 48.4005 47.2566C48.749 47.2566 49.0653 47.196 49.3494 47.0748C49.6335 46.9535 49.874 46.7793 50.071 46.552C50.268 46.3248 50.4081 46.052 50.4914 45.7338H51.8324C51.7566 46.249 51.5691 46.713 51.2699 47.1259C50.9744 47.535 50.5824 47.8607 50.0937 48.1032C49.6089 48.3418 49.0445 48.4611 48.4005 48.4611ZM56.3608 48.4838C55.8077 48.4838 55.3058 48.3797 54.8551 48.1713C54.4043 47.9592 54.0464 47.6543 53.7812 47.2566C53.5161 46.8551 53.3835 46.3702 53.3835 45.802C53.3835 45.302 53.482 44.8967 53.6789 44.5861C53.8759 44.2717 54.1392 44.0255 54.4687 43.8475C54.7983 43.6694 55.1619 43.5369 55.5596 43.4498C55.9611 43.3588 56.3646 43.2869 56.7699 43.2338C57.3002 43.1657 57.7301 43.1145 58.0596 43.0804C58.393 43.0426 58.6354 42.9801 58.7869 42.8929C58.9422 42.8058 59.0199 42.6543 59.0199 42.4384V42.3929C59.0199 41.8323 58.8664 41.3967 58.5596 41.0861C58.2566 40.7755 57.7964 40.6202 57.1789 40.6202C56.5388 40.6202 56.0369 40.7604 55.6733 41.0407C55.3096 41.321 55.0539 41.6202 54.9062 41.9384L53.6335 41.4838C53.8608 40.9535 54.1638 40.5407 54.5426 40.2452C54.9252 39.946 55.3418 39.7376 55.7926 39.6202C56.2471 39.499 56.6941 39.4384 57.1335 39.4384C57.4138 39.4384 57.7358 39.4725 58.0994 39.5407C58.4668 39.6051 58.821 39.7395 59.1619 39.9441C59.5066 40.1486 59.7926 40.4573 60.0199 40.8702C60.2471 41.2831 60.3608 41.8361 60.3608 42.5293V48.2793H59.0199V47.0975H58.9517C58.8608 47.2869 58.7092 47.4895 58.4971 47.7054C58.285 47.9213 58.0028 48.1051 57.6505 48.2566C57.2983 48.4081 56.8683 48.4838 56.3608 48.4838ZM56.5653 47.2793C57.0956 47.2793 57.5426 47.1751 57.9062 46.9668C58.2736 46.7585 58.5502 46.4895 58.7358 46.16C58.9252 45.8304 59.0199 45.4838 59.0199 45.1202V43.8929C58.963 43.9611 58.838 44.0236 58.6449 44.0804C58.4555 44.1335 58.2358 44.1808 57.9858 44.2225C57.7396 44.2604 57.499 44.2944 57.2642 44.3248C57.0331 44.3513 56.8456 44.374 56.7017 44.3929C56.3532 44.4384 56.0274 44.5123 55.7244 44.6145C55.4252 44.713 55.1827 44.8626 54.9971 45.0634C54.8153 45.2604 54.7244 45.5293 54.7244 45.8702C54.7244 46.3361 54.8967 46.6884 55.2414 46.927C55.5899 47.1619 56.0312 47.2793 56.5653 47.2793ZM64.1491 43.0293V48.2793H62.8082V39.552H64.1037V40.9157H64.2173C64.4218 40.4725 64.7324 40.1164 65.1491 39.8475C65.5658 39.5748 66.1037 39.4384 66.7628 39.4384C67.3537 39.4384 67.8707 39.5596 68.3139 39.802C68.7571 40.0407 69.1018 40.4043 69.348 40.8929C69.5942 41.3778 69.7173 41.9914 69.7173 42.7338V48.2793H68.3764V42.8248C68.3764 42.1391 68.1984 41.6051 67.8423 41.2225C67.4862 40.8361 66.9976 40.6429 66.3764 40.6429C65.9484 40.6429 65.5658 40.7357 65.2287 40.9213C64.8953 41.1069 64.6321 41.3778 64.4389 41.7338C64.2457 42.0899 64.1491 42.5217 64.1491 43.0293ZM76.6676 48.2793V39.552H78.0085V48.2793H76.6676ZM77.3494 38.0975C77.088 38.0975 76.8627 38.0085 76.6733 37.8304C76.4877 37.6524 76.3949 37.4384 76.3949 37.1884C76.3949 36.9384 76.4877 36.7244 76.6733 36.5463C76.8627 36.3683 77.088 36.2793 77.3494 36.2793C77.6108 36.2793 77.8342 36.3683 78.0199 36.5463C78.2092 36.7244 78.3039 36.9384 78.3039 37.1884C78.3039 37.4384 78.2092 37.6524 78.0199 37.8304C77.8342 38.0085 77.6108 38.0975 77.3494 38.0975ZM88.2599 48.4611C87.5326 48.4611 86.8906 48.2774 86.3338 47.91C85.777 47.5388 85.3413 47.016 85.027 46.3418C84.7126 45.6638 84.5554 44.8626 84.5554 43.9384C84.5554 43.0217 84.7126 42.2263 85.027 41.552C85.3413 40.8778 85.7788 40.3569 86.3395 39.9895C86.9001 39.6221 87.5478 39.4384 88.2826 39.4384C88.8508 39.4384 89.2997 39.5331 89.6292 39.7225C89.9626 39.9081 90.2163 40.1202 90.3906 40.3588C90.5686 40.5937 90.7069 40.7869 90.8054 40.9384H90.919V36.6429H92.2599V48.2793H90.9645V46.9384H90.8054C90.7069 47.0975 90.5667 47.2982 90.3849 47.5407C90.2031 47.7793 89.9436 47.9933 89.6065 48.1827C89.2694 48.3683 88.8205 48.4611 88.2599 48.4611ZM88.4417 47.2566C88.9796 47.2566 89.4342 47.1164 89.8054 46.8361C90.1766 46.552 90.4588 46.16 90.652 45.66C90.8451 45.1562 90.9417 44.5748 90.9417 43.9157C90.9417 43.2641 90.847 42.6941 90.6576 42.2054C90.4682 41.713 90.1879 41.3304 89.8167 41.0577C89.4455 40.7812 88.9872 40.6429 88.4417 40.6429C87.8735 40.6429 87.4001 40.7888 87.0213 41.0804C86.6463 41.3683 86.3641 41.7604 86.1747 42.2566C85.9891 42.749 85.8963 43.302 85.8963 43.9157C85.8963 44.5369 85.991 45.1013 86.1804 45.6088C86.3735 46.1126 86.6576 46.5141 87.0326 46.8134C87.4114 47.1088 87.8811 47.2566 88.4417 47.2566ZM98.4474 48.4611C97.6595 48.4611 96.9682 48.2736 96.3735 47.8986C95.7826 47.5236 95.3205 46.999 94.9872 46.3248C94.6576 45.6505 94.4929 44.8626 94.4929 43.9611C94.4929 43.052 94.6576 42.2585 94.9872 41.5804C95.3205 40.9024 95.7826 40.3759 96.3735 40.0009C96.9682 39.6259 97.6595 39.4384 98.4474 39.4384C99.2353 39.4384 99.9247 39.6259 100.516 40.0009C101.11 40.3759 101.572 40.9024 101.902 41.5804C102.235 42.2585 102.402 43.052 102.402 43.9611C102.402 44.8626 102.235 45.6505 101.902 46.3248C101.572 46.999 101.11 47.5236 100.516 47.8986C99.9247 48.2736 99.2353 48.4611 98.4474 48.4611ZM98.4474 47.2566C99.0459 47.2566 99.5383 47.1032 99.9247 46.7963C100.311 46.4895 100.597 46.0861 100.783 45.5861C100.968 45.0861 101.061 44.5444 101.061 43.9611C101.061 43.3778 100.968 42.8342 100.783 42.3304C100.597 41.8266 100.311 41.4194 99.9247 41.1088C99.5383 40.7982 99.0459 40.6429 98.4474 40.6429C97.8489 40.6429 97.3565 40.7982 96.9701 41.1088C96.5838 41.4194 96.2978 41.8266 96.1122 42.3304C95.9266 42.8342 95.8338 43.3778 95.8338 43.9611C95.8338 44.5444 95.9266 45.0861 96.1122 45.5861C96.2978 46.0861 96.5838 46.4895 96.9701 46.7963C97.3565 47.1032 97.8489 47.2566 98.4474 47.2566ZM112.835 39.552V40.6884H108.131V39.552H112.835ZM109.54 48.2793V38.3475C109.54 37.8475 109.657 37.4308 109.892 37.0975C110.127 36.7641 110.432 36.5141 110.807 36.3475C111.182 36.1808 111.578 36.0975 111.994 36.0975C112.324 36.0975 112.593 36.124 112.801 36.177C113.009 36.2301 113.165 36.2793 113.267 36.3248L112.881 37.4838C112.812 37.4611 112.718 37.4327 112.597 37.3986C112.479 37.3645 112.324 37.3475 112.131 37.3475C111.687 37.3475 111.367 37.4592 111.17 37.6827C110.977 37.9062 110.881 38.2338 110.881 38.6657V48.2793H109.54ZM117.901 48.4611C117.113 48.4611 116.421 48.2736 115.827 47.8986C115.236 47.5236 114.774 46.999 114.44 46.3248C114.111 45.6505 113.946 44.8626 113.946 43.9611C113.946 43.052 114.111 42.2585 114.44 41.5804C114.774 40.9024 115.236 40.3759 115.827 40.0009C116.421 39.6259 117.113 39.4384 117.901 39.4384C118.688 39.4384 119.378 39.6259 119.969 40.0009C120.563 40.3759 121.026 40.9024 121.355 41.5804C121.688 42.2585 121.855 43.052 121.855 43.9611C121.855 44.8626 121.688 45.6505 121.355 46.3248C121.026 46.999 120.563 47.5236 119.969 47.8986C119.378 48.2736 118.688 48.4611 117.901 48.4611ZM117.901 47.2566C118.499 47.2566 118.991 47.1032 119.378 46.7963C119.764 46.4895 120.05 46.0861 120.236 45.5861C120.421 45.0861 120.514 44.5444 120.514 43.9611C120.514 43.3778 120.421 42.8342 120.236 42.3304C120.05 41.8266 119.764 41.4194 119.378 41.1088C118.991 40.7982 118.499 40.6429 117.901 40.6429C117.302 40.6429 116.81 40.7982 116.423 41.1088C116.037 41.4194 115.751 41.8266 115.565 42.3304C115.38 42.8342 115.287 43.3778 115.287 43.9611C115.287 44.5444 115.38 45.0861 115.565 45.5861C115.751 46.0861 116.037 46.4895 116.423 46.7963C116.81 47.1032 117.302 47.2566 117.901 47.2566ZM123.902 48.2793V39.552H125.197V40.8702H125.288C125.447 40.4384 125.735 40.088 126.152 39.8191C126.569 39.5501 127.038 39.4157 127.561 39.4157C127.66 39.4157 127.783 39.4176 127.93 39.4213C128.078 39.4251 128.19 39.4308 128.266 39.4384V40.802C128.22 40.7907 128.116 40.7736 127.953 40.7509C127.794 40.7244 127.625 40.7111 127.447 40.7111C127.023 40.7111 126.644 40.8001 126.311 40.9782C125.982 41.1524 125.72 41.3948 125.527 41.7054C125.338 42.0123 125.243 42.3626 125.243 42.7566V48.2793H123.902ZM135.219 51.552C134.991 51.552 134.789 51.5331 134.611 51.4952C134.433 51.4611 134.31 51.427 134.241 51.3929L134.582 50.2111C134.908 50.2944 135.196 50.3248 135.446 50.302C135.696 50.2793 135.918 50.1676 136.111 49.9668C136.308 49.7698 136.488 49.4498 136.651 49.0066L136.901 48.3248L133.673 39.552H135.128L137.537 46.5066H137.628L140.037 39.552H141.491L137.787 49.552C137.62 50.0028 137.414 50.3759 137.168 50.6713C136.921 50.9706 136.635 51.1922 136.31 51.3361C135.988 51.4801 135.624 51.552 135.219 51.552ZM146.494 48.4611C145.706 48.4611 145.015 48.2736 144.42 47.8986C143.83 47.5236 143.367 46.999 143.034 46.3248C142.705 45.6505 142.54 44.8626 142.54 43.9611C142.54 43.052 142.705 42.2585 143.034 41.5804C143.367 40.9024 143.83 40.3759 144.42 40.0009C145.015 39.6259 145.706 39.4384 146.494 39.4384C147.282 39.4384 147.972 39.6259 148.562 40.0009C149.157 40.3759 149.619 40.9024 149.949 41.5804C150.282 42.2585 150.449 43.052 150.449 43.9611C150.449 44.8626 150.282 45.6505 149.949 46.3248C149.619 46.999 149.157 47.5236 148.562 47.8986C147.972 48.2736 147.282 48.4611 146.494 48.4611ZM146.494 47.2566C147.093 47.2566 147.585 47.1032 147.972 46.7963C148.358 46.4895 148.644 46.0861 148.83 45.5861C149.015 45.0861 149.108 44.5444 149.108 43.9611C149.108 43.3778 149.015 42.8342 148.83 42.3304C148.644 41.8266 148.358 41.4194 147.972 41.1088C147.585 40.7982 147.093 40.6429 146.494 40.6429C145.896 40.6429 145.403 40.7982 145.017 41.1088C144.631 41.4194 144.345 41.8266 144.159 42.3304C143.973 42.8342 143.881 43.3778 143.881 43.9611C143.881 44.5444 143.973 45.0861 144.159 45.5861C144.345 46.0861 144.631 46.4895 145.017 46.7963C145.403 47.1032 145.896 47.2566 146.494 47.2566ZM157.996 44.7111V39.552H159.337V48.2793H157.996V46.802H157.905C157.7 47.2452 157.382 47.6221 156.95 47.9327C156.518 48.2395 155.973 48.3929 155.314 48.3929C154.768 48.3929 154.284 48.2736 153.859 48.035C153.435 47.7926 153.102 47.4289 152.859 46.9441C152.617 46.4554 152.496 45.8399 152.496 45.0975V39.552H153.837V45.0066C153.837 45.6429 154.015 46.1505 154.371 46.5293C154.731 46.9081 155.189 47.0975 155.746 47.0975C156.079 47.0975 156.418 47.0123 156.763 46.8418C157.111 46.6713 157.403 46.41 157.638 46.0577C157.876 45.7054 157.996 45.2566 157.996 44.7111ZM170.088 39.552V40.6884H165.565V39.552H170.088ZM166.883 37.4611H168.224V45.7793C168.224 46.1581 168.279 46.4422 168.389 46.6316C168.503 46.8172 168.647 46.9422 168.821 47.0066C168.999 47.0672 169.187 47.0975 169.383 47.0975C169.531 47.0975 169.652 47.0899 169.747 47.0748C169.842 47.0558 169.918 47.0407 169.974 47.0293L170.247 48.2338C170.156 48.2679 170.029 48.302 169.866 48.3361C169.704 48.374 169.497 48.3929 169.247 48.3929C168.868 48.3929 168.497 48.3115 168.133 48.1486C167.774 47.9857 167.474 47.7376 167.236 47.4043C167.001 47.071 166.883 46.6505 166.883 46.1429V37.4611ZM175.557 48.4611C174.769 48.4611 174.078 48.2736 173.483 47.8986C172.892 47.5236 172.43 46.999 172.097 46.3248C171.767 45.6505 171.602 44.8626 171.602 43.9611C171.602 43.052 171.767 42.2585 172.097 41.5804C172.43 40.9024 172.892 40.3759 173.483 40.0009C174.078 39.6259 174.769 39.4384 175.557 39.4384C176.345 39.4384 177.034 39.6259 177.625 40.0009C178.22 40.3759 178.682 40.9024 179.011 41.5804C179.345 42.2585 179.511 43.052 179.511 43.9611C179.511 44.8626 179.345 45.6505 179.011 46.3248C178.682 46.999 178.22 47.5236 177.625 47.8986C177.034 48.2736 176.345 48.4611 175.557 48.4611ZM175.557 47.2566C176.155 47.2566 176.648 47.1032 177.034 46.7963C177.42 46.4895 177.706 46.0861 177.892 45.5861C178.078 45.0861 178.17 44.5444 178.17 43.9611C178.17 43.3778 178.078 42.8342 177.892 42.3304C177.706 41.8266 177.42 41.4194 177.034 41.1088C176.648 40.7982 176.155 40.6429 175.557 40.6429C174.958 40.6429 174.466 40.7982 174.08 41.1088C173.693 41.4194 173.407 41.8266 173.222 42.3304C173.036 42.8342 172.943 43.3778 172.943 43.9611C172.943 44.5444 173.036 45.0861 173.222 45.5861C173.407 46.0861 173.693 46.4895 174.08 46.7963C174.466 47.1032 174.958 47.2566 175.557 47.2566ZM184.854 48.4611C184.126 48.4611 183.484 48.2774 182.928 47.91C182.371 47.5388 181.935 47.016 181.621 46.3418C181.306 45.6638 181.149 44.8626 181.149 43.9384C181.149 43.0217 181.306 42.2263 181.621 41.552C181.935 40.8778 182.373 40.3569 182.933 39.9895C183.494 39.6221 184.142 39.4384 184.876 39.4384C185.445 39.4384 185.893 39.5331 186.223 39.7225C186.556 39.9081 186.81 40.1202 186.984 40.3588C187.162 40.5937 187.301 40.7869 187.399 40.9384H187.513V36.6429H188.854V48.2793H187.558V46.9384H187.399C187.301 47.0975 187.16 47.2982 186.979 47.5407C186.797 47.7793 186.537 47.9933 186.2 48.1827C185.863 48.3683 185.414 48.4611 184.854 48.4611ZM185.035 47.2566C185.573 47.2566 186.028 47.1164 186.399 46.8361C186.77 46.552 187.053 46.16 187.246 45.66C187.439 45.1562 187.535 44.5748 187.535 43.9157C187.535 43.2641 187.441 42.6941 187.251 42.2054C187.062 41.713 186.782 41.3304 186.41 41.0577C186.039 40.7812 185.581 40.6429 185.035 40.6429C184.467 40.6429 183.994 40.7888 183.615 41.0804C183.24 41.3683 182.958 41.7604 182.768 42.2566C182.583 42.749 182.49 43.302 182.49 43.9157C182.49 44.5369 182.585 45.1013 182.774 45.6088C182.967 46.1126 183.251 46.5141 183.626 46.8134C184.005 47.1088 184.475 47.2566 185.035 47.2566ZM194.064 48.4838C193.511 48.4838 193.009 48.3797 192.558 48.1713C192.107 47.9592 191.749 47.6543 191.484 47.2566C191.219 46.8551 191.087 46.3702 191.087 45.802C191.087 45.302 191.185 44.8967 191.382 44.5861C191.579 44.2717 191.842 44.0255 192.172 43.8475C192.501 43.6694 192.865 43.5369 193.263 43.4498C193.664 43.3588 194.068 43.2869 194.473 43.2338C195.003 43.1657 195.433 43.1145 195.763 43.0804C196.096 43.0426 196.339 42.9801 196.49 42.8929C196.645 42.8058 196.723 42.6543 196.723 42.4384V42.3929C196.723 41.8323 196.57 41.3967 196.263 41.0861C195.96 40.7755 195.499 40.6202 194.882 40.6202C194.242 40.6202 193.74 40.7604 193.376 41.0407C193.013 41.321 192.757 41.6202 192.609 41.9384L191.337 41.4838C191.564 40.9535 191.867 40.5407 192.246 40.2452C192.628 39.946 193.045 39.7376 193.496 39.6202C193.95 39.499 194.397 39.4384 194.837 39.4384C195.117 39.4384 195.439 39.4725 195.803 39.5407C196.17 39.6051 196.524 39.7395 196.865 39.9441C197.21 40.1486 197.496 40.4573 197.723 40.8702C197.95 41.2831 198.064 41.8361 198.064 42.5293V48.2793H196.723V47.0975H196.655C196.564 47.2869 196.412 47.4895 196.2 47.7054C195.988 47.9213 195.706 48.1051 195.354 48.2566C195.001 48.4081 194.571 48.4838 194.064 48.4838ZM194.268 47.2793C194.799 47.2793 195.246 47.1751 195.609 46.9668C195.977 46.7585 196.253 46.4895 196.439 46.16C196.628 45.8304 196.723 45.4838 196.723 45.1202V43.8929C196.666 43.9611 196.541 44.0236 196.348 44.0804C196.159 44.1335 195.939 44.1808 195.689 44.2225C195.443 44.2604 195.202 44.2944 194.967 44.3248C194.736 44.3513 194.549 44.374 194.405 44.3929C194.056 44.4384 193.731 44.5123 193.428 44.6145C193.128 44.713 192.886 44.8626 192.7 45.0634C192.518 45.2604 192.428 45.5293 192.428 45.8702C192.428 46.3361 192.6 46.6884 192.945 46.927C193.293 47.1619 193.734 47.2793 194.268 47.2793ZM201.062 51.552C200.835 51.552 200.633 51.5331 200.455 51.4952C200.276 51.4611 200.153 51.427 200.085 51.3929L200.426 50.2111C200.752 50.2944 201.04 50.3248 201.29 50.302C201.54 50.2793 201.761 50.1676 201.955 49.9668C202.151 49.7698 202.331 49.4498 202.494 49.0066L202.744 48.3248L199.517 39.552H200.972L203.381 46.5066H203.472L205.881 39.552H207.335L203.631 49.552C203.464 50.0028 203.258 50.3759 203.011 50.6713C202.765 50.9706 202.479 51.1922 202.153 51.3361C201.831 51.4801 201.468 51.552 201.062 51.552ZM210.855 45.0066V44.9384C210.863 44.2149 210.938 43.6391 211.082 43.2111C211.226 42.7831 211.431 42.4365 211.696 42.1713C211.961 41.9062 212.279 41.6619 212.651 41.4384C212.874 41.302 213.075 41.141 213.253 40.9554C213.431 40.766 213.571 40.5482 213.673 40.302C213.779 40.0558 213.832 39.7831 213.832 39.4838C213.832 39.1126 213.745 38.7907 213.571 38.5179C213.397 38.2452 213.164 38.035 212.872 37.8873C212.58 37.7395 212.257 37.6657 211.901 37.6657C211.59 37.6657 211.291 37.7301 211.003 37.8588C210.715 37.9876 210.474 38.1903 210.281 38.4668C210.088 38.7433 209.976 39.1051 209.946 39.552H208.514C208.544 38.9081 208.711 38.3569 209.014 37.8986C209.321 37.4403 209.724 37.0899 210.224 36.8475C210.728 36.6051 211.287 36.4838 211.901 36.4838C212.567 36.4838 213.147 36.6164 213.639 36.8816C214.135 37.1467 214.518 37.5104 214.787 37.9725C215.06 38.4346 215.196 38.9611 215.196 39.552C215.196 39.9687 215.132 40.3456 215.003 40.6827C214.878 41.0198 214.696 41.321 214.457 41.5861C214.223 41.8513 213.938 42.0861 213.605 42.2907C213.272 42.499 213.005 42.7187 212.804 42.9498C212.603 43.177 212.457 43.4479 212.366 43.7623C212.276 44.0766 212.226 44.4687 212.219 44.9384V45.0066H210.855ZM211.582 48.3702C211.302 48.3702 211.062 48.2698 210.861 48.0691C210.66 47.8683 210.56 47.6278 210.56 47.3475C210.56 47.0672 210.66 46.8266 210.861 46.6259C211.062 46.4251 211.302 46.3248 211.582 46.3248C211.863 46.3248 212.103 46.4251 212.304 46.6259C212.505 46.8266 212.605 47.0672 212.605 47.3475C212.605 47.5331 212.558 47.7035 212.463 47.8588C212.372 48.0141 212.249 48.1391 212.094 48.2338C211.942 48.3248 211.772 48.3702 211.582 48.3702Z" fill="white"/>
</svg>
