<svg width="122" height="21" viewBox="0 0 122 21" fill="none" xmlns="http://www.w3.org/2000/svg">
<path d="M0 19.9286V1.27748H3.91799V9.81101C9.55485 9.75991 12.7904 6.43848 12.7904 1.27748H16.7083C16.7083 5.1099 14.6609 8.45689 11.3243 10.5264L17.7953 19.9286H13.3212L7.88654 12.0849C6.64795 12.4426 5.33353 12.647 3.91799 12.6726V19.9286H0Z" fill="black"/>
<path d="M17.1778 12.7748C17.1778 8.53354 20.3627 5.3654 24.761 5.3654C26.7832 5.3654 28.502 6.23408 29.6648 7.6904V5.62089H33.33V19.9286H29.6648V17.9358C28.502 19.3665 26.7579 20.1841 24.6599 20.1841C20.3627 20.1841 17.1778 16.9904 17.1778 12.7748ZM20.843 12.7748C20.843 15.483 22.5366 17.3226 25.1149 17.3226C27.7943 17.3226 29.6648 15.6619 29.6648 12.7492C29.6648 9.86211 27.6173 8.22694 25.2412 8.22694C22.5618 8.22694 20.843 10.041 20.843 12.7748Z" fill="black"/>
<path d="M38.5204 0V19.9286H34.8551V0H38.5204Z" fill="black"/>
<path d="M48.2794 20.1841C43.6536 20.1841 39.9126 16.8882 39.9126 12.7748C39.9126 8.66129 43.5778 5.3654 48.0266 5.3654C51.0346 5.3654 53.6888 6.89837 55.0537 9.14673C55.6098 9.96431 55.9384 10.8841 56.0395 11.9061L45.0692 15.9429C45.8528 16.786 46.9902 17.3226 48.2794 17.3226C49.8213 17.3226 51.1105 16.5305 51.8182 15.4575L54.9779 16.9393C53.5876 18.9066 51.161 20.1841 48.2794 20.1841ZM43.6284 13.3624L51.7424 10.3731C50.9841 9.07008 49.5938 8.22694 48.0266 8.22694C45.5747 8.22694 43.5778 10.2198 43.5778 12.7748C43.5778 12.9792 43.6031 13.158 43.6284 13.3624Z" fill="black"/>
<path d="M72.8352 12.0083V19.9286H69.17V12.0083C69.17 9.60662 67.4005 8.22694 65.1761 8.22694C62.9264 8.22694 61.1318 9.60662 61.1318 12.0083V19.9286H57.4665V5.62089H61.1318V7.40936C62.3451 6.10633 64.0892 5.3654 66.0861 5.3654C69.8019 5.3654 72.8352 7.86925 72.8352 12.0083Z" fill="black"/>
<path d="M74.2246 12.7748C74.2246 8.53354 77.4096 5.3654 81.8079 5.3654C83.83 5.3654 85.5489 6.23408 86.7117 7.6904V0H90.3769V19.9286H86.7117V17.9358C85.5489 19.3665 83.8048 20.1841 81.7067 20.1841C77.4096 20.1841 74.2246 16.9904 74.2246 12.7748ZM77.8899 12.7748C77.8899 15.483 79.5835 17.3226 82.1617 17.3226C84.8411 17.3226 86.7117 15.6619 86.7117 12.7492C86.7117 9.86211 84.6642 8.22694 82.2881 8.22694C79.6087 8.22694 77.8899 10.041 77.8899 12.7748Z" fill="black"/>
<path d="M91.902 19.9286V5.62089H95.5672V7.17941C96.6036 6.00414 98.0697 5.3654 99.738 5.3654C102.038 5.3654 103.58 6.18298 105.476 8.38024L102.923 10.1943C101.962 8.81458 100.951 8.22694 99.4094 8.22694C97.2861 8.22694 95.5672 9.60662 95.5672 12.0083V19.9286H91.902Z" fill="black"/>
<path d="M105.624 12.7748C105.624 8.53354 108.809 5.3654 113.207 5.3654C115.229 5.3654 116.948 6.23408 118.111 7.6904V5.62089H121.776V19.9286H118.111V17.9358C116.948 19.3665 115.204 20.1841 113.106 20.1841C108.809 20.1841 105.624 16.9904 105.624 12.7748ZM109.289 12.7748C109.289 15.483 110.983 17.3226 113.561 17.3226C116.24 17.3226 118.111 15.6619 118.111 12.7492C118.111 9.86211 116.063 8.22694 113.687 8.22694C111.008 8.22694 109.289 10.041 109.289 12.7748Z" fill="black"/>
</svg>
