<svg width="24" height="24" viewBox="0 0 24 24" fill="none" xmlns="http://www.w3.org/2000/svg">
<path d="M16.4758 1.84446C18.0765 1.02285 20.069 0 23.7444 0V5.53953C23.6992 5.53953 23.654 5.53953 23.6105 5.53953C20.021 5.56414 18.0575 6.57117 16.4758 7.38312C15.143 8.06765 14.173 8.56501 12.0067 8.58522C11.9624 8.58522 11.9172 8.58522 11.8728 8.58522C11.8285 8.58522 11.7833 8.58522 11.7389 8.58522C9.57271 8.56589 8.60271 8.06765 7.26987 7.38312C5.68819 6.57117 3.72558 5.56326 0.135138 5.53953C0.0908003 5.53953 0.0464631 5.53953 0.0012207 5.53953V0C3.67671 0 5.66919 1.02285 7.26987 1.84446C8.62986 2.54217 9.61252 3.04657 11.8737 3.04657C14.135 3.04657 15.1167 2.54217 16.4776 1.84446H16.4758Z" fill="#FB8624"/>
<path d="M16.476 9.60227C18.0767 8.78066 20.0692 7.75781 23.7447 7.75781V13.2973C23.6994 13.2973 23.6542 13.2973 23.6108 13.2973C20.0212 13.322 18.0577 14.329 16.476 15.1409C15.1432 15.8255 14.1732 16.3228 12.007 16.343C11.9627 16.343 11.9174 16.343 11.8731 16.343C11.8287 16.343 11.7835 16.343 11.7392 16.343C9.57295 16.3237 8.60295 15.8255 7.27011 15.1409C5.68844 14.329 3.72582 13.3211 0.135382 13.2973C0.0910445 13.2973 0.0467073 13.2973 0.00146484 13.2973V7.75781C3.67696 7.75781 5.66944 8.78066 7.27011 9.60227C8.6301 10.3 9.61277 10.8044 11.874 10.8044C14.1352 10.8044 15.117 10.3 16.4779 9.60227H16.476Z" fill="#C36135"/>
<path d="M23.7441 18.4609H0V24.0013H23.7441V18.4609Z" fill="#2E363C"/>
</svg>
