<svg width="50" height="50" viewBox="0 0 50 50" fill="none" xmlns="http://www.w3.org/2000/svg">
<circle cx="25" cy="25" r="25" fill="#2E363C"/>
<path d="M36.7188 25.0005C36.7188 25.2595 36.6159 25.5079 36.4328 25.6911C36.2496 25.8742 36.0012 25.9771 35.7422 25.9771H25.0001C24.7411 25.9771 24.4927 25.8742 24.3095 25.6911C24.1264 25.5079 24.0235 25.2595 24.0235 25.0005C24.0235 24.7415 24.1264 24.4932 24.3095 24.31C24.4927 24.1269 24.7411 24.024 25.0001 24.024H35.7422C36.0012 24.024 36.2496 24.1269 36.4328 24.31C36.6159 24.4932 36.7188 24.7415 36.7188 25.0005ZM25.0001 18.1646H35.7422C36.0012 18.1646 36.2496 18.0617 36.4328 17.8786C36.6159 17.6954 36.7188 17.447 36.7188 17.188C36.7188 16.929 36.6159 16.6807 36.4328 16.4975C36.2496 16.3144 36.0012 16.2115 35.7422 16.2115H25.0001C24.7411 16.2115 24.4927 16.3144 24.3095 16.4975C24.1264 16.6807 24.0235 16.929 24.0235 17.188C24.0235 17.447 24.1264 17.6954 24.3095 17.8786C24.4927 18.0617 24.7411 18.1646 25.0001 18.1646ZM35.7422 31.8365H25.0001C24.7411 31.8365 24.4927 31.9394 24.3095 32.1225C24.1264 32.3057 24.0235 32.554 24.0235 32.813C24.0235 33.072 24.1264 33.3204 24.3095 33.5036C24.4927 33.6867 24.7411 33.7896 25.0001 33.7896H35.7422C36.0012 33.7896 36.2496 33.6867 36.4328 33.5036C36.6159 33.3204 36.7188 33.072 36.7188 32.813C36.7188 32.554 36.6159 32.3057 36.4328 32.1225C36.2496 31.9394 36.0012 31.8365 35.7422 31.8365ZM19.4263 14.544L16.211 17.7606L14.9488 16.4971C14.7655 16.3139 14.517 16.2109 14.2579 16.2109C13.9987 16.2109 13.7502 16.3139 13.5669 16.4971C13.3837 16.6804 13.2808 16.9289 13.2808 17.188C13.2808 17.4472 13.3837 17.6957 13.5669 17.879L15.5201 19.8321C15.6108 19.9229 15.7185 19.9949 15.837 20.0441C15.9556 20.0932 16.0827 20.1185 16.211 20.1185C16.3393 20.1185 16.4664 20.0932 16.585 20.0441C16.7035 19.9949 16.8112 19.9229 16.9019 19.8321L20.8082 15.9258C20.9914 15.7426 21.0943 15.4941 21.0943 15.2349C21.0943 14.9758 20.9914 14.7272 20.8082 14.544C20.6249 14.3608 20.3764 14.2578 20.1172 14.2578C19.8581 14.2578 19.6096 14.3608 19.4263 14.544ZM19.4263 22.3565L16.211 25.5731L14.9488 24.3096C14.7655 24.1264 14.517 24.0234 14.2579 24.0234C13.9987 24.0234 13.7502 24.1264 13.5669 24.3096C13.3837 24.4929 13.2808 24.7414 13.2808 25.0005C13.2808 25.1289 13.306 25.2559 13.3551 25.3745C13.4042 25.493 13.4762 25.6007 13.5669 25.6915L15.5201 27.6446C15.6108 27.7354 15.7185 27.8074 15.837 27.8566C15.9556 27.9057 16.0827 27.931 16.211 27.931C16.3393 27.931 16.4664 27.9057 16.585 27.8566C16.7035 27.8074 16.8112 27.7354 16.9019 27.6446L20.8082 23.7383C20.9914 23.5551 21.0943 23.3066 21.0943 23.0474C21.0943 22.7883 20.9914 22.5397 20.8082 22.3565C20.6249 22.1733 20.3764 22.0703 20.1172 22.0703C19.8581 22.0703 19.6096 22.1733 19.4263 22.3565ZM19.4263 30.169L16.211 33.3856L14.9488 32.1221C14.8581 32.0314 14.7503 31.9594 14.6318 31.9103C14.5132 31.8612 14.3862 31.8359 14.2579 31.8359C14.1296 31.8359 14.0025 31.8612 13.8839 31.9103C13.7654 31.9594 13.6577 32.0314 13.5669 32.1221C13.4762 32.2129 13.4042 32.3206 13.3551 32.4391C13.306 32.5577 13.2808 32.6847 13.2808 32.813C13.2808 32.9414 13.306 33.0684 13.3551 33.187C13.4042 33.3055 13.4762 33.4132 13.5669 33.504L15.5201 35.4571C15.6108 35.5479 15.7185 35.6199 15.837 35.6691C15.9556 35.7182 16.0827 35.7435 16.211 35.7435C16.3393 35.7435 16.4664 35.7182 16.585 35.6691C16.7035 35.6199 16.8112 35.5479 16.9019 35.4571L20.8082 31.5508C20.9914 31.3676 21.0943 31.1191 21.0943 30.8599C21.0943 30.6008 20.9914 30.3522 20.8082 30.169C20.6249 29.9858 20.3764 29.8828 20.1172 29.8828C19.8581 29.8828 19.6096 29.9858 19.4263 30.169Z" fill="white"/>
</svg>
