<svg width="42" height="42" viewBox="0 0 42 42" fill="none" xmlns="http://www.w3.org/2000/svg">
<path d="M13.125 21V10.5C13.125 8.41142 13.9547 6.40838 15.4315 4.93153C16.9084 3.45469 18.9114 2.625 21 2.625C23.0886 2.625 25.0916 3.45469 26.5685 4.93153C28.0453 6.40838 28.875 8.41142 28.875 10.5V21C28.875 23.0886 28.0453 25.0916 26.5685 26.5685C25.0916 28.0453 23.0886 28.875 21 28.875C18.9114 28.875 16.9084 28.0453 15.4315 26.5685C13.9547 25.0916 13.125 23.0886 13.125 21ZM34.125 21C34.125 20.6519 33.9867 20.3181 33.7406 20.0719C33.4944 19.8258 33.1606 19.6875 32.8125 19.6875C32.4644 19.6875 32.1306 19.8258 31.8844 20.0719C31.6383 20.3181 31.5 20.6519 31.5 21C31.5 23.7848 30.3938 26.4555 28.4246 28.4246C26.4555 30.3938 23.7848 31.5 21 31.5C18.2152 31.5 15.5445 30.3938 13.5754 28.4246C11.6062 26.4555 10.5 23.7848 10.5 21C10.5 20.6519 10.3617 20.3181 10.1156 20.0719C9.86944 19.8258 9.5356 19.6875 9.1875 19.6875C8.8394 19.6875 8.50556 19.8258 8.25942 20.0719C8.01328 20.3181 7.875 20.6519 7.875 21C7.879 24.2526 9.08893 27.3882 11.2708 29.8004C13.4527 32.2126 16.4516 33.7301 19.6875 34.0594V39.375C19.6875 39.7231 19.8258 40.0569 20.0719 40.3031C20.3181 40.5492 20.6519 40.6875 21 40.6875C21.3481 40.6875 21.6819 40.5492 21.9281 40.3031C22.1742 40.0569 22.3125 39.7231 22.3125 39.375V34.0594C25.5484 33.7301 28.5473 32.2126 30.7292 29.8004C32.9111 27.3882 34.121 24.2526 34.125 21Z" fill="white"/>
</svg>
