<svg width="42" height="42" viewBox="0 0 42 42" fill="none" xmlns="http://www.w3.org/2000/svg">
<path d="M35.4375 7.875V34.125C35.4375 34.8212 35.1609 35.4889 34.6687 35.9812C34.1764 36.4734 33.5087 36.75 32.8125 36.75H26.25C25.5538 36.75 24.8861 36.4734 24.3938 35.9812C23.9016 35.4889 23.625 34.8212 23.625 34.125V7.875C23.625 7.17881 23.9016 6.51113 24.3938 6.01884C24.8861 5.52656 25.5538 5.25 26.25 5.25H32.8125C33.5087 5.25 34.1764 5.52656 34.6687 6.01884C35.1609 6.51113 35.4375 7.17881 35.4375 7.875ZM15.75 5.25H9.1875C8.49131 5.25 7.82363 5.52656 7.33134 6.01884C6.83906 6.51113 6.5625 7.17881 6.5625 7.875V34.125C6.5625 34.8212 6.83906 35.4889 7.33134 35.9812C7.82363 36.4734 8.49131 36.75 9.1875 36.75H15.75C16.4462 36.75 17.1139 36.4734 17.6062 35.9812C18.0984 35.4889 18.375 34.8212 18.375 34.125V7.875C18.375 7.17881 18.0984 6.51113 17.6062 6.01884C17.1139 5.52656 16.4462 5.25 15.75 5.25Z" fill="white"/>
</svg>
