<svg width="117" height="27" viewBox="0 0 117 27" fill="none" xmlns="http://www.w3.org/2000/svg">
<path d="M8.81398 17.1605C11.778 17.1605 13.676 16.3805 13.676 14.9505C13.676 10.3745 0.337976 13.1565 0.337976 5.9025C0.337976 2.5225 3.79598 0.5725 8.83998 0.5725C12.428 0.5725 15.262 1.7945 17.056 3.3025L14.95 5.6165C13.754 4.4985 11.674 3.4845 8.83998 3.4845C6.18798 3.4845 4.36798 4.5245 4.36798 6.0845C4.36798 10.5045 17.706 7.4365 17.706 14.4045C17.706 17.8365 14.066 20.0725 8.60598 20.0725C4.86198 20.0725 1.79398 18.8505 -2.44044e-05 17.3425L2.10598 15.0285C3.30198 16.1465 5.64198 17.1605 8.81398 17.1605ZM27.6236 20.0725C22.8656 20.0725 19.0176 16.7185 19.0176 12.5325C19.0176 8.3465 22.7876 4.9925 27.3636 4.9925C30.4576 4.9925 33.1876 6.5525 34.5916 8.8405C35.1636 9.6725 35.5016 10.6085 35.6056 11.6485L24.3216 15.7565C25.1276 16.6145 26.2976 17.1605 27.6236 17.1605C29.2096 17.1605 30.5356 16.3545 31.2636 15.2625L34.5136 16.7705C33.0836 18.7725 30.5876 20.0725 27.6236 20.0725ZM22.8396 13.1305L31.1856 10.0885C30.4056 8.7625 28.9756 7.9045 27.3636 7.9045C24.8416 7.9045 22.7876 9.9325 22.7876 12.5325C22.7876 12.7405 22.8136 12.9225 22.8396 13.1305ZM46.5247 20.0725C42.6507 20.0725 38.6987 17.5505 38.6987 13.3125V8.1645H36.5147V5.2525H38.6987V1.3265H42.4687V5.2525H45.6147V8.1645H42.4687V13.3125C42.4687 15.8085 44.2107 17.1605 46.5247 17.1605V20.0725ZM58.1029 20.0725C54.2289 20.0725 50.2769 17.5505 50.2769 13.3125V8.1645H48.0929V5.2525H50.2769V1.3265H54.0469V5.2525H57.1929V8.1645H54.0469V13.3125C54.0469 15.8085 55.7889 17.1605 58.1029 17.1605V20.0725ZM60.009 19.8125V5.2525H63.779V19.8125H60.009ZM59.671 1.7425C59.671 0.780499 60.633 0.000499368 61.907 0.000499368C63.155 0.000499368 64.117 0.780499 64.117 1.7425C64.117 2.7045 63.155 3.4845 61.907 3.4845C60.633 3.4845 59.671 2.7045 59.671 1.7425ZM81.4966 11.7525V19.8125H77.7266V11.7525C77.7266 9.3085 75.9066 7.9045 73.6186 7.9045C71.3046 7.9045 69.4586 9.3085 69.4586 11.7525V19.8125H65.6886V5.2525H69.4586V7.0725C70.7066 5.7465 72.5006 4.9925 74.5546 4.9925C78.3766 4.9925 81.4966 7.5405 81.4966 11.7525ZM82.9258 12.5325C82.9258 8.2425 86.2018 4.9925 90.6218 4.9925C92.7798 4.9925 94.5738 5.8245 95.7698 7.2805V5.2525H99.5398V19.6045C99.5398 23.7905 95.4058 26.5725 91.5578 26.5725C88.5938 26.5725 86.0718 25.2725 84.6418 23.2965L87.8918 21.7885C88.6458 22.8545 89.9458 23.4525 91.5578 23.4525C93.8718 23.4525 95.7698 21.9965 95.7698 19.6045V17.7065C94.5738 19.1885 92.8058 20.0725 90.7258 20.0725C86.2018 20.0725 82.9258 16.8485 82.9258 12.5325ZM86.6958 12.5325C86.6958 15.3145 88.4638 17.1605 91.2198 17.1605C93.6638 17.1605 95.7698 15.4965 95.7698 12.5585C95.7698 9.5945 93.8458 7.9045 91.0898 7.9045C88.4378 7.9045 86.6958 9.7765 86.6958 12.5325ZM108.674 20.0725C105.97 20.0725 103.136 19.0845 101.004 17.3425L103.136 15.0025C104.644 16.3805 106.724 17.1605 108.726 17.1605C110.884 17.1605 112.418 16.4585 112.418 15.3925C112.418 12.4285 101.264 14.8985 101.264 9.5945C101.264 6.8905 104.202 4.9925 108.362 4.9925C111.118 4.9925 113.926 6.0065 115.98 7.7225L113.848 10.0625C112.444 8.7105 110.39 7.9045 108.44 7.9045C106.568 7.9045 105.034 8.4765 105.034 9.4385C105.034 12.5325 116.188 9.9325 116.188 15.4185C116.188 18.2005 113.198 20.0725 108.674 20.0725Z" fill="white"/>
</svg>
