<svg width="133" height="21" viewBox="0 0 133 21" fill="none" xmlns="http://www.w3.org/2000/svg">
<path d="M6.52597 20.2812V4.21325H-2.92659e-05V1.30125H17.108V4.21325H10.556V20.2812H6.52597ZM23.685 20.5413C18.927 20.5413 15.079 17.1872 15.079 13.0012C15.079 8.81525 18.849 5.46125 23.425 5.46125C26.519 5.46125 29.249 7.02125 30.653 9.30925C31.225 10.1412 31.563 11.0772 31.667 12.1172L20.383 16.2252C21.189 17.0832 22.359 17.6292 23.685 17.6292C25.271 17.6292 26.597 16.8232 27.325 15.7312L30.575 17.2392C29.145 19.2412 26.649 20.5413 23.685 20.5413ZM18.901 13.5993L27.247 10.5572C26.467 9.23125 25.037 8.37325 23.425 8.37325C20.903 8.37325 18.849 10.4012 18.849 13.0012C18.849 13.2092 18.875 13.3912 18.901 13.5993ZM35.911 5.72125L39.707 10.2452L43.529 5.72125H47.793L41.865 12.8712L48.0011 20.2812H43.295L39.499 15.7312L35.703 20.2812H31.413L37.367 13.1312L31.205 5.72125H35.911ZM59.5725 20.5413C55.6985 20.5413 51.7465 18.0192 51.7465 13.7812V8.63325H49.5625V5.72125H51.7465V1.79525H55.5165V5.72125H58.6625V8.63325H55.5165V13.7812C55.5165 16.2772 57.2585 17.6292 59.5725 17.6292V20.5413ZM78.2945 17.6292C80.4005 17.6292 82.0125 16.8752 83.1305 15.6792L86.0685 17.6032C84.2225 19.3972 81.5445 20.5413 78.2945 20.5413C71.8985 20.5413 67.7645 16.1992 67.7645 10.7912C67.7645 5.38325 71.8985 1.04125 78.2945 1.04125C81.5445 1.04125 84.2225 2.18525 86.0685 3.97925L83.1305 5.90325C82.0125 4.70725 80.4005 3.95325 78.2945 3.95325C74.0825 3.95325 71.7945 6.96925 71.7945 10.7912C71.7945 14.6132 74.0825 17.6292 78.2945 17.6292ZM103.304 12.2212V20.2812H99.5341V12.2212C99.5341 9.77725 97.7141 8.37325 95.4261 8.37325C93.1121 8.37325 91.2661 9.77725 91.2661 12.2212V20.2812H87.4961V0.00124919H91.2661V7.54125C92.5141 6.21525 94.3081 5.46125 96.3621 5.46125C100.184 5.46125 103.304 8.00925 103.304 12.2212ZM104.733 13.0012C104.733 8.68525 108.009 5.46125 112.533 5.46125C114.613 5.46125 116.381 6.34525 117.577 7.82725V5.72125H121.347V20.2812H117.577V18.2532C116.381 19.7092 114.587 20.5413 112.429 20.5413C108.009 20.5413 104.733 17.2912 104.733 13.0012ZM108.503 13.0012C108.503 15.7572 110.245 17.6292 112.897 17.6292C115.653 17.6292 117.577 15.9392 117.577 12.9752C117.577 10.0372 115.471 8.37325 113.027 8.37325C110.271 8.37325 108.503 10.2192 108.503 13.0012ZM132.926 20.5413C129.052 20.5413 125.1 18.0192 125.1 13.7812V8.63325H122.916V5.72125H125.1V1.79525H128.87V5.72125H132.016V8.63325H128.87V13.7812C128.87 16.2772 130.612 17.6292 132.926 17.6292V20.5413Z" fill="white"/>
</svg>
