<svg width="35" height="33" viewBox="0 0 35 33" fill="none" xmlns="http://www.w3.org/2000/svg">
<path d="M34.125 10.5C34.125 9.80381 33.8484 9.13613 33.3562 8.64385C32.8639 8.15156 32.1962 7.875 31.5 7.875H26.25V2.625C26.25 1.92881 25.9734 1.26113 25.4812 0.768845C24.9889 0.276562 24.3212 0 23.625 0H2.625C1.92881 0 1.26113 0.276562 0.768845 0.768845C0.276562 1.26113 0 1.92881 0 2.625V23.625C0.000770623 23.8719 0.0711821 24.1136 0.203146 24.3223C0.335109 24.531 0.523271 24.6983 0.746015 24.8049C0.968759 24.9114 1.21705 24.953 1.46236 24.9248C1.70767 24.8966 1.94006 24.7998 2.13281 24.6455L7.875 20.0156V24.9375C7.875 25.6337 8.15156 26.3014 8.64385 26.7937C9.13613 27.2859 9.80381 27.5625 10.5 27.5625H25.8546L31.9922 32.5205C32.2244 32.7083 32.5138 32.8113 32.8125 32.8125C33.1606 32.8125 33.4944 32.6742 33.7406 32.4281C33.9867 32.1819 34.125 31.8481 34.125 31.5V10.5ZM27.1441 25.2295C26.9119 25.0417 26.6225 24.9387 26.3238 24.9375H10.5V19.6875H23.625C24.3212 19.6875 24.9889 19.4109 25.4812 18.9187C25.9734 18.4264 26.25 17.7587 26.25 17.0625V10.5H31.5V28.752L27.1441 25.2295Z" fill="white"/>
</svg>
